<svg width="807" height="807" viewBox="0 0 807 807" fill="none" xmlns="http://www.w3.org/2000/svg">
<mask id="mask0_306_227" style="mask-type:alpha" maskUnits="userSpaceOnUse" x="0" y="0" width="807" height="807">
<circle cx="403.5" cy="403.5" r="403.5" fill="url(#paint0_radial_306_227)"/>
</mask>
<g mask="url(#mask0_306_227)">
<circle cx="403.5" cy="403.5" r="403.5" fill="url(#paint1_radial_306_227)"/>
<path d="M36.4952 169C-15.3381 204.167 -76.8004 299.6 15.9996 308C132 318.5 49.9998 176.5 203.5 192C357 207.5 311.5 205 425.5 160C516.7 124 504.167 44.6667 486.5 9.5L365 -33L55.4996 96.5L36.4952 169Z" fill="#C2F0FF" fill-opacity="0.2"/>
<path d="M-13.0002 387.5V445.5C-13.0002 445.5 -11.0005 468.5 55.4996 472C122 475.5 123.5 452.5 185 419C246.5 385.5 304 403.5 396.5 379.5C489 355.5 468.5 312.5 501 275C533.5 237.5 607.066 198.5 611.566 178.5C616.066 158.5 667 96.5 667 96.5C667 96.5 670 90.5 631 62C592 33.5 584.5 42 584.5 42C584.5 42 588.138 64.5 586.319 87.5C584.5 110.5 567.5 145.5 552.5 169C537.5 192.5 504.5 230 472.5 238C440.5 246 438.5 277 415 292.5C391.5 308 362.5 337 283 342.5C203.5 348 230.5 297.5 135 342.5C58.5998 378.5 4.49983 387.5 -13.0002 387.5Z" fill="#C2F0FF" fill-opacity="0.2"/>
<path d="M132 533.58C83.9998 512.08 84.9998 554.58 69.4998 556.08C53.9998 557.58 67.9998 601.58 95.9998 606.08C124 610.58 134.133 616.2 157.294 636.08C180.456 655.961 202.609 627.522 229.5 578C256.391 528.478 297 547.08 289 503.58C281 460.08 180 555.08 132 533.58Z" fill="#C2F0FF" fill-opacity="0.2"/>
<path d="M153 485.5C153 499 162 514 174.5 498.5C187 483 206 519 206 485.5C206 452 184 480 174.5 461.5C165 443 153 472 153 485.5Z" fill="#C2F0FF" fill-opacity="0.2"/>
<path d="M290 611.5C286.5 588 296.5 588.561 317 578C337.5 567.439 323 510 396.5 538.5C470 567 428 619.5 378 628C328 636.5 293.5 635 290 611.5Z" fill="#C2F0FF" fill-opacity="0.2"/>
<path d="M457.5 563.5C432 566.5 448.5 540.5 429 525.5C409.5 510.5 456.5 480.5 462 500.5C467.5 520.5 494.5 515.5 483 529.5C471.5 543.5 483 560.5 457.5 563.5Z" fill="#C2F0FF" fill-opacity="0.2"/>
<path d="M634.716 320.5C651.716 336 686.25 352.5 683.25 308C680.25 263.5 717.183 325 714.216 281C711.25 237 690.683 118 655.716 191C620.75 264 617.716 305 634.716 320.5Z" fill="#C2F0FF" fill-opacity="0.2"/>
<path d="M185 760.5L283 742C283 742 335.5 775 423 760.5C510.5 746 511 711 534 691.5C557 672 555 688 608.5 624.5C662 561 608 578 690 512C755.6 459.2 755.5 393.5 780 358.5C804.5 323.5 822.5 292.5 822.5 292.5C822.5 292.5 853.5 350.5 822.5 379.5C791.5 408.5 790.1 410.7 798.5 461.5C806.9 512.3 729.667 564 690 583.5L611 691.5C571.333 704 581.5 751 513 760.5C444.5 770 428.333 802.667 375.5 808H211.5L185 760.5Z" fill="#C2F0FF" fill-opacity="0.2"/>
<path d="M586.319 308.728C592.893 303.067 606.143 302.127 612.958 307.894C612.958 309.549 611.596 313.693 610.529 315.066C609.195 316.781 609.496 318.77 608.518 320.53C607.538 322.294 606.942 324.223 606.089 326.07C604.768 328.932 601.684 334.981 598.5 335.936C591.466 338.046 583.747 342.747 576.073 339.314C572.803 337.85 571.576 334.12 572.127 330.813C573.437 322.956 580.424 313.805 586.319 308.728Z" fill="#C2F0FF" fill-opacity="0.2"/>
<path d="M45.4805 664.438H36.495C29.3066 653.489 102.158 655.77 139.482 658.279C154.228 664.894 214.269 679.629 336.472 685.651C489.225 693.179 505.813 619.958 528.623 604.903C551.432 589.848 572.168 572.74 611.566 550.158C643.084 532.092 665.248 442.265 672.39 399.61C663.866 400.751 657.737 390.304 701.42 339.391C756.024 275.75 739.436 234.692 741.509 222.374C743.168 212.52 750.495 201.389 753.951 197.055L773.995 212.11C774.226 244.272 765.563 316.398 729.068 347.603C683.449 386.608 668.934 484.464 672.39 494.729C675.846 504.994 592.212 611.746 559.726 619.958C527.24 628.169 485.769 675.387 464.342 678.124C442.915 680.861 436.694 707.976 404.208 704.555C371.722 701.133 336.472 695.232 303.295 704.555C270.777 713.693 119.22 680.559 45.9884 664.549L45.4805 664.438Z" fill="#C2F0FF" fill-opacity="0.2"/>
<path d="M215.5 301.645C193.333 294.645 157.5 275.545 191.5 255.145C234 229.645 243 276.145 285 263.145C327 250.145 365.5 201.145 388 204.145C410.5 207.145 399 279.645 355.5 287.145C312 294.645 305.5 316.145 215.5 301.645Z" fill="#C2F0FF" fill-opacity="0.2"/>
<path d="M400.5 745C380 750.5 349.8 753.4 333 739C316.2 724.6 341 719.333 355.5 718.5C375.167 724.5 398 729 426.5 729C454.776 729 447.124 733.43 437.724 738.871L437.5 739C428 744.5 421 739.5 400.5 745Z" fill="#C2F0FF" fill-opacity="0.2"/>
<path d="M437.5 716.5C430 714.5 447.9 700.856 461.5 702.5C475.1 704.144 479.5 708.185 480 710C474.5 713.5 445 718.5 437.5 716.5Z" fill="#C2F0FF" fill-opacity="0.2"/>
</g>
<defs>
<radialGradient id="paint0_radial_306_227" cx="0" cy="0" r="1" gradientUnits="userSpaceOnUse" gradientTransform="translate(206 210.5) rotate(51.4965) scale(543.721 525.425)">
<stop stop-color="#E7AD5E"/>
<stop offset="1" stop-color="#D3935A"/>
</radialGradient>
<radialGradient id="paint1_radial_306_227" cx="0" cy="0" r="1" gradientUnits="userSpaceOnUse" gradientTransform="translate(174 161.5) rotate(48.7244) scale(691.243 667.983)">
<stop stop-color="#5EDFE7"/>
<stop offset="1" stop-color="#8F5AD3"/>
</radialGradient>
</defs>
</svg>
