<svg width="807" height="807" viewBox="0 0 807 807" fill="none" xmlns="http://www.w3.org/2000/svg">
<mask id="mask0_320_701" style="mask-type:alpha" maskUnits="userSpaceOnUse" x="0" y="0" width="807" height="807">
<circle cx="403.5" cy="403.5" r="403.5" fill="#CCBEDB"/>
</mask>
<g mask="url(#mask0_320_701)">
<circle cx="403.5" cy="403.5" r="403.5" fill="url(#paint0_radial_320_701)"/>
<g opacity="0.75">
<path d="M212 139.5C22.8 107.5 -9.49998 212.5 -1.99998 269C-9.8333 327.833 15.9001 455.9 181.5 497.5C388.5 549.5 349 450.5 315 331C281 211.5 548.5 212 469 114C389.5 16.0001 448.5 179.5 212 139.5Z" fill="url(#paint1_linear_320_701)"/>
<path d="M600.5 590C445.3 608.8 454.5 750.167 478.5 818.5C529 792.667 653.3 731.6 746.5 694C839.7 656.4 831.667 512.667 816 445.5C808.833 485.833 755.7 571.2 600.5 590Z" fill="url(#paint2_linear_320_701)"/>
<path d="M562.5 210.5C518.1 134.9 623 95.6666 681 85.5C768.5 135.667 922.5 261.6 838.5 364C754.5 466.4 619.5 394 562.5 345C598.833 346 681.2 325.6 720 236C758.8 146.4 631.167 181.667 562.5 210.5Z" fill="url(#paint3_linear_320_701)"/>
<path d="M363.5 345C315 353 327.6 256.4 432 236C536.4 215.6 412 337 363.5 345Z" fill="url(#paint4_linear_320_701)"/>
<path d="M194 107.5C245 107.333 359.2 96.6 408 55C381.333 90 301.2 149.5 194 107.5Z" fill="url(#paint5_linear_320_701)"/>
<path d="M144 538.5C40.8 566.9 -17.6667 461.667 -34 405.5C-75.6 553.1 141 735.333 254.5 808C260.667 706.333 247.2 510.1 144 538.5Z" fill="url(#paint6_linear_320_701)"/>
<path d="M614.125 535.316C615.025 536.434 615.989 537.497 617 538.5C614.971 537.824 614.062 536.742 614.125 535.316C596.61 513.574 603.064 471.142 756 452.5C705.864 475.756 614.734 521.561 614.125 535.316Z" fill="url(#paint7_linear_320_701)"/>
<path d="M531.5 523.5C512.5 538.5 457 531 432 580C407 629 363.5 734 305.5 653C247.5 572 390 562.5 424 469.5C458 376.5 562.5 404 562.5 452.5C562.5 501 550.5 508.5 531.5 523.5Z" fill="url(#paint8_linear_320_701)"/>
<path d="M545 85.5C553.8 23.9 334.333 16.1666 223.5 20C344.048 -80.4001 544.728 1.49995 630 55L545 85.5Z" fill="url(#paint9_linear_320_701)"/>
</g>
</g>
<defs>
<radialGradient id="paint0_radial_320_701" cx="0" cy="0" r="1" gradientUnits="userSpaceOnUse" gradientTransform="translate(201.5 224) rotate(41.304) scale(707.518)">
<stop stop-color="#00FFA3"/>
<stop offset="1" stop-color="#11D4FF"/>
</radialGradient>
<linearGradient id="paint1_linear_320_701" x1="171.5" y1="60" x2="680.5" y2="767" gradientUnits="userSpaceOnUse">
<stop stop-color="#56FFC2"/>
<stop offset="1" stop-color="#6FEEFF"/>
</linearGradient>
<linearGradient id="paint2_linear_320_701" x1="171.5" y1="60" x2="680.5" y2="767" gradientUnits="userSpaceOnUse">
<stop stop-color="#56FFC2"/>
<stop offset="1" stop-color="#6FEEFF"/>
</linearGradient>
<linearGradient id="paint3_linear_320_701" x1="171.5" y1="60" x2="680.5" y2="767" gradientUnits="userSpaceOnUse">
<stop stop-color="#56FFC2"/>
<stop offset="1" stop-color="#6FEEFF"/>
</linearGradient>
<linearGradient id="paint4_linear_320_701" x1="171.5" y1="60" x2="680.5" y2="767" gradientUnits="userSpaceOnUse">
<stop stop-color="#56FFC2"/>
<stop offset="1" stop-color="#6FEEFF"/>
</linearGradient>
<linearGradient id="paint5_linear_320_701" x1="171.5" y1="60" x2="680.5" y2="767" gradientUnits="userSpaceOnUse">
<stop stop-color="#56FFC2"/>
<stop offset="1" stop-color="#6FEEFF"/>
</linearGradient>
<linearGradient id="paint6_linear_320_701" x1="171.5" y1="60" x2="680.5" y2="767" gradientUnits="userSpaceOnUse">
<stop stop-color="#56FFC2"/>
<stop offset="1" stop-color="#6FEEFF"/>
</linearGradient>
<linearGradient id="paint7_linear_320_701" x1="171.5" y1="60" x2="680.5" y2="767" gradientUnits="userSpaceOnUse">
<stop stop-color="#56FFC2"/>
<stop offset="1" stop-color="#6FEEFF"/>
</linearGradient>
<linearGradient id="paint8_linear_320_701" x1="171.5" y1="60" x2="680.5" y2="767" gradientUnits="userSpaceOnUse">
<stop stop-color="#56FFC2"/>
<stop offset="1" stop-color="#6FEEFF"/>
</linearGradient>
<linearGradient id="paint9_linear_320_701" x1="171.5" y1="60" x2="680.5" y2="767" gradientUnits="userSpaceOnUse">
<stop stop-color="#56FFC2"/>
<stop offset="1" stop-color="#6FEEFF"/>
</linearGradient>
</defs>
</svg>
