<svg width="807" height="807" viewBox="0 0 807 807" fill="none" xmlns="http://www.w3.org/2000/svg">
<mask id="mask0_311_1037" style="mask-type:alpha" maskUnits="userSpaceOnUse" x="0" y="0" width="807" height="807">
<circle cx="403.5" cy="403.5" r="403.5" fill="#86EFAC"/>
</mask>
<g mask="url(#mask0_311_1037)">
<g filter="url(#filter0_d_311_1037)">
<circle cx="403.5" cy="403.5" r="403.5" fill="url(#paint0_radial_311_1037)"/>
</g>
<path d="M471.511 652.854C301.043 678.243 349.101 770.73 394.438 811.533C659.206 822.414 776.781 595.426 802.472 480.572C796.427 482.084 777.083 492.361 748.067 539.511C711.797 598.449 684.595 621.118 471.511 652.854Z" fill="url(#paint1_radial_311_1037)" fill-opacity="0.5"/>
<path d="M548.584 598.449C522.241 586.36 501.682 557.646 630.191 539.511C790.826 516.843 680.061 598.449 548.584 598.449Z" fill="url(#paint2_radial_311_1037)" fill-opacity="0.5"/>
<path d="M317.365 244.82C77.9849 270.209 3.02249 415.589 1.66893e-05 485.106L27.2023 566.713C220.64 448.836 556.744 219.432 317.365 244.82Z" fill="url(#paint3_radial_311_1037)" fill-opacity="0.5"/>
<path d="M494.179 226.685C628.377 226.685 281.095 353.629 349.101 417.101C417.106 480.573 722.678 281.09 748.067 244.82C779.803 199.483 680.061 262.955 598.455 258.421C516.848 253.888 652.859 217.618 734.466 181.348C799.751 152.333 749.578 136.011 716.331 131.478C586.365 163.214 359.982 226.685 494.179 226.685Z" fill="url(#paint4_radial_311_1037)" fill-opacity="0.5"/>
<path d="M4.53372 303.758C4.40539 301.255 4.43997 298.686 4.6372 296.059C5.7585 254.173 16.9103 175.767 81.6112 117.876C150.523 56.2177 262.96 72.5384 412.572 81.6058C562.184 90.6732 743.529 -1.81409 689.124 63.4713C621.117 145.078 480.569 140.544 262.951 145.078C96.2482 148.551 9.08489 236.824 4.6372 296.059C4.56422 298.785 4.53372 301.357 4.53372 303.758Z" fill="url(#paint5_radial_311_1037)" fill-opacity="0.5"/>
<path d="M684.59 340.027C688.217 292.877 767.713 288.646 802.472 294.69L811.544 362.696C811.544 362.696 770.73 403.499 748.067 444.303C725.404 485.106 657.388 480.572 630.191 444.303C602.994 408.033 680.963 387.178 684.59 340.027Z" fill="url(#paint6_radial_311_1037)" fill-opacity="0.5"/>
<path d="M262.955 462.438C235.753 476.039 136.011 516.842 90.6742 557.646C45.3371 598.449 68.0056 598.45 167.747 630.185C267.489 661.92 231.219 680.055 299.225 675.521C367.23 670.988 312.826 639.252 335.494 584.848C358.163 530.443 398.966 557.646 426.169 498.707C453.371 439.769 290.157 448.836 262.955 462.438Z" fill="url(#paint7_radial_311_1037)" fill-opacity="0.5"/>
<path d="M253.888 702.724C210.364 670.081 139.034 680.056 108.809 689.123L194.949 766.196L317.365 807C314.34 785.842 297.411 735.367 253.888 702.724Z" fill="url(#paint8_radial_311_1037)" fill-opacity="0.5"/>
<path d="M371.764 630.185C340.028 625.651 353.629 568.526 389.899 575.78C426.169 583.034 403.5 634.719 371.764 630.185Z" fill="url(#paint9_radial_311_1037)" fill-opacity="0.5"/>
<path d="M630.191 362.696C621.118 358.162 566.714 385.365 562.18 398.966C557.646 412.567 584.848 444.303 593.916 444.303C602.983 444.303 639.263 367.23 630.191 362.696Z" fill="url(#paint10_radial_311_1037)" fill-opacity="0.5"/>
<path d="M154.146 208.55C99.7416 194.042 36.2697 247.842 13.6011 276.556L-4.53369 385.365C22.6686 231.218 222.152 226.685 154.146 208.55Z" fill="url(#paint11_radial_311_1037)" fill-opacity="0.5"/>
</g>
<defs>
<filter id="filter0_d_311_1037" x="-10" y="-10" width="827" height="827" filterUnits="userSpaceOnUse" color-interpolation-filters="sRGB">
<feFlood flood-opacity="0" result="BackgroundImageFix"/>
<feColorMatrix in="SourceAlpha" type="matrix" values="0 0 0 0 0 0 0 0 0 0 0 0 0 0 0 0 0 0 127 0" result="hardAlpha"/>
<feOffset/>
<feGaussianBlur stdDeviation="5"/>
<feComposite in2="hardAlpha" operator="out"/>
<feColorMatrix type="matrix" values="0 0 0 0 0.52549 0 0 0 0 0.937255 0 0 0 0 0.67451 0 0 0 1 0"/>
<feBlend mode="normal" in2="BackgroundImageFix" result="effect1_dropShadow_311_1037"/>
<feBlend mode="normal" in="SourceGraphic" in2="effect1_dropShadow_311_1037" result="shape"/>
</filter>
<radialGradient id="paint0_radial_311_1037" cx="0" cy="0" r="1" gradientUnits="userSpaceOnUse" gradientTransform="translate(642 626.5) rotate(-138.55) scale(856.535)">
<stop stop-color="#D39359"/>
<stop offset="0.0001" stop-color="#D39359"/>
<stop offset="1" stop-color="#E7AD5E"/>
</radialGradient>
<radialGradient id="paint1_radial_311_1037" cx="0" cy="0" r="1" gradientUnits="userSpaceOnUse" gradientTransform="translate(612.055 580.314) rotate(-136.597) scale(804.973 830.061)">
<stop stop-color="#EFA966"/>
<stop offset="1" stop-color="#F1B662"/>
</radialGradient>
<radialGradient id="paint2_radial_311_1037" cx="0" cy="0" r="1" gradientUnits="userSpaceOnUse" gradientTransform="translate(612.055 580.314) rotate(-136.597) scale(804.973 830.061)">
<stop stop-color="#EFA966"/>
<stop offset="1" stop-color="#F1B662"/>
</radialGradient>
<radialGradient id="paint3_radial_311_1037" cx="0" cy="0" r="1" gradientUnits="userSpaceOnUse" gradientTransform="translate(612.055 580.314) rotate(-136.597) scale(804.973 830.061)">
<stop stop-color="#EFA966"/>
<stop offset="1" stop-color="#F1B662"/>
</radialGradient>
<radialGradient id="paint4_radial_311_1037" cx="0" cy="0" r="1" gradientUnits="userSpaceOnUse" gradientTransform="translate(612.055 580.314) rotate(-136.597) scale(804.973 830.061)">
<stop stop-color="#EFA966"/>
<stop offset="1" stop-color="#F1B662"/>
</radialGradient>
<radialGradient id="paint5_radial_311_1037" cx="0" cy="0" r="1" gradientUnits="userSpaceOnUse" gradientTransform="translate(612.055 580.314) rotate(-136.597) scale(804.973 830.061)">
<stop stop-color="#EFA966"/>
<stop offset="1" stop-color="#F1B662"/>
</radialGradient>
<radialGradient id="paint6_radial_311_1037" cx="0" cy="0" r="1" gradientUnits="userSpaceOnUse" gradientTransform="translate(612.055 580.314) rotate(-136.597) scale(804.973 830.061)">
<stop stop-color="#EFA966"/>
<stop offset="1" stop-color="#F1B662"/>
</radialGradient>
<radialGradient id="paint7_radial_311_1037" cx="0" cy="0" r="1" gradientUnits="userSpaceOnUse" gradientTransform="translate(612.055 580.314) rotate(-136.597) scale(804.973 830.061)">
<stop stop-color="#EFA966"/>
<stop offset="1" stop-color="#F1B662"/>
</radialGradient>
<radialGradient id="paint8_radial_311_1037" cx="0" cy="0" r="1" gradientUnits="userSpaceOnUse" gradientTransform="translate(612.055 580.314) rotate(-136.597) scale(804.973 830.061)">
<stop stop-color="#EFA966"/>
<stop offset="1" stop-color="#F1B662"/>
</radialGradient>
<radialGradient id="paint9_radial_311_1037" cx="0" cy="0" r="1" gradientUnits="userSpaceOnUse" gradientTransform="translate(612.055 580.314) rotate(-136.597) scale(804.973 830.061)">
<stop stop-color="#EFA966"/>
<stop offset="1" stop-color="#F1B662"/>
</radialGradient>
<radialGradient id="paint10_radial_311_1037" cx="0" cy="0" r="1" gradientUnits="userSpaceOnUse" gradientTransform="translate(612.055 580.314) rotate(-136.597) scale(804.973 830.061)">
<stop stop-color="#EFA966"/>
<stop offset="1" stop-color="#F1B662"/>
</radialGradient>
<radialGradient id="paint11_radial_311_1037" cx="0" cy="0" r="1" gradientUnits="userSpaceOnUse" gradientTransform="translate(612.055 580.314) rotate(-136.597) scale(804.973 830.061)">
<stop stop-color="#EFA966"/>
<stop offset="1" stop-color="#F1B662"/>
</radialGradient>
</defs>
</svg>
