<svg width="807" height="807" viewBox="0 0 807 807" fill="none" xmlns="http://www.w3.org/2000/svg">
<mask id="mask0_309_1028" style="mask-type:alpha" maskUnits="userSpaceOnUse" x="0" y="0" width="807" height="807">
<circle cx="403.5" cy="403.5" r="403.5" fill="#CCBEDB"/>
</mask>
<g mask="url(#mask0_309_1028)">
<circle cx="403.5" cy="403.5" r="403.5" fill="url(#paint0_radial_309_1028)"/>
<g opacity="0.5">
<path d="M444.5 662.5C176.5 652.1 66.8333 708.5 45.5 738L203.5 764.5C244.333 788 345.8 825.2 425 786C524 737 574.5 749 568 727C562.8 709.4 647.167 727 690 738L725 666C700 686.833 643.2 723.3 616 702.5C582 676.5 528 709 458.5 754.5C402.9 790.9 274.667 762.333 217.5 743.5C182.5 748.333 116.8 750.7 134 721.5C151.2 692.3 214.833 690.333 244.5 693C270.1 671.4 484.833 675 589 679.5C720.6 616.3 782.5 613.833 797 620.5L818 414.5C805.167 501.5 712.5 672.9 444.5 662.5Z" fill="url(#paint1_linear_309_1028)"/>
<path d="M444.5 662.5C176.5 652.1 66.8333 708.5 45.5 738L203.5 764.5C244.333 788 345.8 825.2 425 786C524 737 574.5 749 568 727C562.8 709.4 647.167 727 690 738L725 666C700 686.833 643.2 723.3 616 702.5C582 676.5 528 709 458.5 754.5C402.9 790.9 274.667 762.333 217.5 743.5C182.5 748.333 116.8 750.7 134 721.5C151.2 692.3 214.833 690.333 244.5 693C270.1 671.4 484.833 675 589 679.5C720.6 616.3 782.5 613.833 797 620.5L818 414.5C805.167 501.5 712.5 672.9 444.5 662.5Z" fill="url(#paint2_radial_309_1028)" fill-opacity="0.2"/>
<path d="M67.5 655.5L32 620.5C263 582.167 733.4 492.1 767 438.5C800.6 384.9 801 288.5 797 247C816 358.833 802.5 577.5 596.5 557.5C390.5 537.5 158 614.5 67.5 655.5Z" fill="url(#paint3_linear_309_1028)"/>
<path d="M67.5 655.5L32 620.5C263 582.167 733.4 492.1 767 438.5C800.6 384.9 801 288.5 797 247C816 358.833 802.5 577.5 596.5 557.5C390.5 537.5 158 614.5 67.5 655.5Z" fill="url(#paint4_radial_309_1028)" fill-opacity="0.2"/>
<path d="M21.5 573L15.5 527C-109.3 455.744 436.5 438.31 725 438.5C674.833 462.698 525.6 506.474 330 488C134.4 469.526 42.8333 536.969 21.5 573Z" fill="url(#paint5_linear_309_1028)"/>
<path d="M21.5 573L15.5 527C-109.3 455.744 436.5 438.31 725 438.5C674.833 462.698 525.6 506.474 330 488C134.4 469.526 42.8333 536.969 21.5 573Z" fill="url(#paint6_radial_309_1028)" fill-opacity="0.2"/>
<path d="M494 388.5C278 476 32.6668 443 -12.9999 404C-34.1666 355.167 -62.5999 277.6 -6.9999 358C48.6001 438.4 391.5 416.5 494 388.5Z" fill="url(#paint7_linear_309_1028)"/>
<path d="M494 388.5C278 476 32.6668 443 -12.9999 404C-34.1666 355.167 -62.5999 277.6 -6.9999 358C48.6001 438.4 391.5 416.5 494 388.5Z" fill="url(#paint8_radial_309_1028)" fill-opacity="0.2"/>
<path d="M739.5 155C658 331.302 265 392.251 93.5 358C217.5 455.77 801.333 318.333 788 269.5L739.5 155Z" fill="url(#paint9_linear_309_1028)"/>
<path d="M739.5 155C658 331.302 265 392.251 93.5 358C217.5 455.77 801.333 318.333 788 269.5L739.5 155Z" fill="url(#paint10_radial_309_1028)" fill-opacity="0.2"/>
<path d="M84 269.5C123 288.333 248.5 310.2 438.5 247C628.5 183.8 281.333 235.667 84 269.5Z" fill="url(#paint11_linear_309_1028)"/>
<path d="M84 269.5C123 288.333 248.5 310.2 438.5 247C628.5 183.8 281.333 235.667 84 269.5Z" fill="url(#paint12_radial_309_1028)" fill-opacity="0.2"/>
<path d="M657 136C643.8 190.8 519.167 270.5 458.5 303.5C662.5 215.532 721.167 155.18 725 136L713.5 88.4999C700.167 81.4999 670.2 81.1999 657 136Z" fill="url(#paint13_linear_309_1028)"/>
<path d="M657 136C643.8 190.8 519.167 270.5 458.5 303.5C662.5 215.532 721.167 155.18 725 136L713.5 88.4999C700.167 81.4999 670.2 81.1999 657 136Z" fill="url(#paint14_radial_309_1028)" fill-opacity="0.2"/>
<path d="M176 342.5C23.6 356.5 5.5 310.667 15.5 286V246.875C15.299 244.149 15.2946 241.358 15.5 238.5V246.875C19.996 307.855 122.875 335.959 176 342.5Z" fill="url(#paint15_linear_309_1028)"/>
<path d="M176 342.5C23.6 356.5 5.5 310.667 15.5 286V246.875C15.299 244.149 15.2946 241.358 15.5 238.5V246.875C19.996 307.855 122.875 335.959 176 342.5Z" fill="url(#paint16_radial_309_1028)" fill-opacity="0.2"/>
<path d="M546 9.5C206 222.3 61.6667 195.167 32 155L67.5 27L425 -30.5L546 9.5Z" fill="url(#paint17_linear_309_1028)"/>
<path d="M546 9.5C206 222.3 61.6667 195.167 32 155L67.5 27L425 -30.5L546 9.5Z" fill="url(#paint18_radial_309_1028)" fill-opacity="0.2"/>
<path d="M371 172.5C513.8 119.7 568.5 48.1667 578 19C627 2.5 711.4 -12.6 657 59C602.6 130.6 443.667 164.5 371 172.5Z" fill="url(#paint19_linear_309_1028)"/>
<path d="M371 172.5C513.8 119.7 568.5 48.1667 578 19C627 2.5 711.4 -12.6 657 59C602.6 130.6 443.667 164.5 371 172.5Z" fill="url(#paint20_radial_309_1028)" fill-opacity="0.2"/>
<path d="M253 716C234.2 734.4 284.5 754.5 380 754.5C475.5 754.5 474.833 717.667 464 702.5C439.2 742.1 320.5 741 280.5 731C240.5 721 370 702.5 451 686C392.833 688.333 271.8 697.6 253 716Z" fill="url(#paint21_linear_309_1028)"/>
<path d="M253 716C234.2 734.4 284.5 754.5 380 754.5C475.5 754.5 474.833 717.667 464 702.5C439.2 742.1 320.5 741 280.5 731C240.5 721 370 702.5 451 686C392.833 688.333 271.8 697.6 253 716Z" fill="url(#paint22_radial_309_1028)" fill-opacity="0.2"/>
</g>
</g>
<defs>
<radialGradient id="paint0_radial_309_1028" cx="0" cy="0" r="1" gradientUnits="userSpaceOnUse" gradientTransform="translate(679.5 480) rotate(-147.52) scale(781.192)">
<stop stop-color="#EBDDF9"/>
<stop offset="1" stop-color="white"/>
</radialGradient>
<linearGradient id="paint1_linear_309_1028" x1="389.315" y1="-30.5" x2="389.315" y2="803.118" gradientUnits="userSpaceOnUse">
<stop stop-color="#B69CD1"/>
<stop offset="1" stop-color="#A079CA" stop-opacity="0"/>
</linearGradient>
<radialGradient id="paint2_radial_309_1028" cx="0" cy="0" r="1" gradientUnits="userSpaceOnUse" gradientTransform="translate(618.5 719.5) rotate(-120.368) scale(552.856 568.608)">
<stop stop-color="#0500FF"/>
<stop offset="1" stop-color="#0500FF" stop-opacity="0"/>
</radialGradient>
<linearGradient id="paint3_linear_309_1028" x1="389.315" y1="-30.5" x2="389.315" y2="803.118" gradientUnits="userSpaceOnUse">
<stop stop-color="#B69CD1"/>
<stop offset="1" stop-color="#A079CA" stop-opacity="0"/>
</linearGradient>
<radialGradient id="paint4_radial_309_1028" cx="0" cy="0" r="1" gradientUnits="userSpaceOnUse" gradientTransform="translate(618.5 719.5) rotate(-120.368) scale(552.856 568.608)">
<stop stop-color="#0500FF"/>
<stop offset="1" stop-color="#0500FF" stop-opacity="0"/>
</radialGradient>
<linearGradient id="paint5_linear_309_1028" x1="389.315" y1="-30.5" x2="389.315" y2="803.118" gradientUnits="userSpaceOnUse">
<stop stop-color="#B69CD1"/>
<stop offset="1" stop-color="#A079CA" stop-opacity="0"/>
</linearGradient>
<radialGradient id="paint6_radial_309_1028" cx="0" cy="0" r="1" gradientUnits="userSpaceOnUse" gradientTransform="translate(618.5 719.5) rotate(-120.368) scale(552.856 568.608)">
<stop stop-color="#0500FF"/>
<stop offset="1" stop-color="#0500FF" stop-opacity="0"/>
</radialGradient>
<linearGradient id="paint7_linear_309_1028" x1="389.315" y1="-30.5" x2="389.315" y2="803.118" gradientUnits="userSpaceOnUse">
<stop stop-color="#B69CD1"/>
<stop offset="1" stop-color="#A079CA" stop-opacity="0"/>
</linearGradient>
<radialGradient id="paint8_radial_309_1028" cx="0" cy="0" r="1" gradientUnits="userSpaceOnUse" gradientTransform="translate(618.5 719.5) rotate(-120.368) scale(552.856 568.608)">
<stop stop-color="#0500FF"/>
<stop offset="1" stop-color="#0500FF" stop-opacity="0"/>
</radialGradient>
<linearGradient id="paint9_linear_309_1028" x1="389.315" y1="-30.5" x2="389.315" y2="803.118" gradientUnits="userSpaceOnUse">
<stop stop-color="#B69CD1"/>
<stop offset="1" stop-color="#A079CA" stop-opacity="0"/>
</linearGradient>
<radialGradient id="paint10_radial_309_1028" cx="0" cy="0" r="1" gradientUnits="userSpaceOnUse" gradientTransform="translate(618.5 719.5) rotate(-120.368) scale(552.856 568.608)">
<stop stop-color="#0500FF"/>
<stop offset="1" stop-color="#0500FF" stop-opacity="0"/>
</radialGradient>
<linearGradient id="paint11_linear_309_1028" x1="389.315" y1="-30.5" x2="389.315" y2="803.118" gradientUnits="userSpaceOnUse">
<stop stop-color="#B69CD1"/>
<stop offset="1" stop-color="#A079CA" stop-opacity="0"/>
</linearGradient>
<radialGradient id="paint12_radial_309_1028" cx="0" cy="0" r="1" gradientUnits="userSpaceOnUse" gradientTransform="translate(618.5 719.5) rotate(-120.368) scale(552.856 568.608)">
<stop stop-color="#0500FF"/>
<stop offset="1" stop-color="#0500FF" stop-opacity="0"/>
</radialGradient>
<linearGradient id="paint13_linear_309_1028" x1="389.315" y1="-30.5" x2="389.315" y2="803.118" gradientUnits="userSpaceOnUse">
<stop stop-color="#B69CD1"/>
<stop offset="1" stop-color="#A079CA" stop-opacity="0"/>
</linearGradient>
<radialGradient id="paint14_radial_309_1028" cx="0" cy="0" r="1" gradientUnits="userSpaceOnUse" gradientTransform="translate(618.5 719.5) rotate(-120.368) scale(552.856 568.608)">
<stop stop-color="#0500FF"/>
<stop offset="1" stop-color="#0500FF" stop-opacity="0"/>
</radialGradient>
<linearGradient id="paint15_linear_309_1028" x1="389.315" y1="-30.5" x2="389.315" y2="803.118" gradientUnits="userSpaceOnUse">
<stop stop-color="#B69CD1"/>
<stop offset="1" stop-color="#A079CA" stop-opacity="0"/>
</linearGradient>
<radialGradient id="paint16_radial_309_1028" cx="0" cy="0" r="1" gradientUnits="userSpaceOnUse" gradientTransform="translate(618.5 719.5) rotate(-120.368) scale(552.856 568.608)">
<stop stop-color="#0500FF"/>
<stop offset="1" stop-color="#0500FF" stop-opacity="0"/>
</radialGradient>
<linearGradient id="paint17_linear_309_1028" x1="389.315" y1="-30.5" x2="389.315" y2="803.118" gradientUnits="userSpaceOnUse">
<stop stop-color="#B69CD1"/>
<stop offset="1" stop-color="#A079CA" stop-opacity="0"/>
</linearGradient>
<radialGradient id="paint18_radial_309_1028" cx="0" cy="0" r="1" gradientUnits="userSpaceOnUse" gradientTransform="translate(618.5 719.5) rotate(-120.368) scale(552.856 568.608)">
<stop stop-color="#0500FF"/>
<stop offset="1" stop-color="#0500FF" stop-opacity="0"/>
</radialGradient>
<linearGradient id="paint19_linear_309_1028" x1="389.315" y1="-30.5" x2="389.315" y2="803.118" gradientUnits="userSpaceOnUse">
<stop stop-color="#B69CD1"/>
<stop offset="1" stop-color="#A079CA" stop-opacity="0"/>
</linearGradient>
<radialGradient id="paint20_radial_309_1028" cx="0" cy="0" r="1" gradientUnits="userSpaceOnUse" gradientTransform="translate(618.5 719.5) rotate(-120.368) scale(552.856 568.608)">
<stop stop-color="#0500FF"/>
<stop offset="1" stop-color="#0500FF" stop-opacity="0"/>
</radialGradient>
<linearGradient id="paint21_linear_309_1028" x1="389.315" y1="-30.5" x2="389.315" y2="803.118" gradientUnits="userSpaceOnUse">
<stop stop-color="#B69CD1"/>
<stop offset="1" stop-color="#A079CA" stop-opacity="0"/>
</linearGradient>
<radialGradient id="paint22_radial_309_1028" cx="0" cy="0" r="1" gradientUnits="userSpaceOnUse" gradientTransform="translate(618.5 719.5) rotate(-120.368) scale(552.856 568.608)">
<stop stop-color="#0500FF"/>
<stop offset="1" stop-color="#0500FF" stop-opacity="0"/>
</radialGradient>
</defs>
</svg>
