<svg width="243" height="233" viewBox="0 0 243 233" fill="none" xmlns="http://www.w3.org/2000/svg">
<path d="M111.989 7.27049C114.983 -1.94261 128.017 -1.94261 131.011 7.2705L152.82 74.3921C154.158 78.5124 157.998 81.302 162.33 81.302L232.906 81.302C242.593 81.302 246.621 93.6981 238.784 99.3921L181.687 140.876C178.182 143.422 176.715 147.936 178.054 152.056L199.863 219.178C202.857 228.391 192.312 236.052 184.475 230.358L127.378 188.874C123.873 186.328 119.127 186.328 115.622 188.874L58.5251 230.358C50.6879 236.052 40.1432 228.391 43.1367 219.178L64.9458 152.056C66.2846 147.936 64.818 143.422 61.3131 140.876L4.21602 99.3921C-3.62112 93.6981 0.406647 81.302 10.0939 81.302H80.6697C85.002 81.302 88.8416 78.5124 90.1803 74.3921L111.989 7.27049Z" fill="#FFE297"/>
</svg>
