<svg width="357" height="357" viewBox="0 0 357 357" fill="none" xmlns="http://www.w3.org/2000/svg">
<path fill-rule="evenodd" clip-rule="evenodd" d="M357 219.3L355.562 224.036C355.562 224.4 355.562 224.4 355.202 224.764C351.607 237.15 346.933 248.807 341.181 259.736C331.834 277.586 319.251 293.979 304.87 307.821C287.973 323.85 267.84 336.6 245.55 344.979C225.417 352.629 203.846 357 181.196 357C177.961 357 174.725 357 171.489 356.636C166.816 356.271 162.142 355.907 157.468 355.179C126.909 351.171 98.8669 339.514 75.1388 322.029C72.9817 320.207 70.8247 318.75 68.6676 316.929C72.9818 313.286 81.6101 312.921 81.6101 312.921L69.3866 303.086L38.8276 286.329C33.0754 278.679 27.6826 270.664 23.0089 262.286C21.9304 260.1 20.8518 258.279 19.7733 256.093C19.7733 256.093 19.7733 256.093 19.7733 255.729C18.6947 253.543 17.6162 251.357 16.5377 249.171C13.302 242.25 10.7853 234.964 8.26872 227.314C6.47113 221.85 5.03313 216.386 3.95458 210.921C3.23555 206.914 2.51649 202.907 1.79746 198.9C0.718911 190.521 -0.00012207 181.778 -0.00012207 173.036C-0.00012207 170.85 -0.00012207 169.028 -0.00012207 166.843C-0.00012207 163.928 0.359417 160.65 0.359417 157.736C0.718933 154.821 1.07838 151.907 1.07838 148.993C1.07838 148.628 1.07838 148.628 1.07838 148.264C1.79742 144.257 2.15696 140.25 3.23551 136.243C4.31406 130.414 5.75217 124.95 7.54975 119.485C9.70685 111.835 12.5829 104.185 15.8186 97.264C19.0542 90.3426 22.6494 83.4211 26.6041 76.8639C38.8277 70.3068 46.737 66.664 46.737 66.664C46.737 66.664 257.773 24.4068 261.009 20.7639C264.245 17.121 280.063 19.3067 280.063 19.3067C290.13 25.8639 299.118 33.5139 307.746 41.8924C309.903 43.7139 311.701 45.8996 313.498 47.7211C314.577 49.1782 316.015 50.6354 317.094 52.0925C319.251 54.6425 321.048 56.8283 323.205 59.3783C330.396 68.8497 336.867 78.6854 342.26 89.2497C344.417 93.2568 346.214 97.6282 348.012 101.635C364.19 166.114 344.057 221.121 344.057 221.121C349.45 220.028 353.764 219.664 357 219.3Z" fill="url(#paint0_radial_15_22)"/>
<path fill-rule="evenodd" clip-rule="evenodd" d="M357 219.3L355.562 224.036C355.562 224.4 355.562 224.4 355.202 224.764C351.607 237.15 346.933 248.807 341.181 259.736C331.834 277.586 319.251 293.979 304.87 307.821C287.973 323.85 267.84 336.6 245.55 344.979C225.417 352.629 203.846 357 181.196 357C177.961 357 174.725 357 171.489 356.636C166.816 356.271 162.142 355.907 157.468 355.179C126.909 351.171 98.8669 339.514 75.1388 322.029C72.9817 320.207 70.8247 318.75 68.6676 316.929C72.9818 313.286 81.6101 312.921 81.6101 312.921L69.3866 303.086L38.8276 286.329C33.0754 278.679 27.6826 270.664 23.0089 262.286C21.9304 260.1 20.8518 258.279 19.7733 256.093C19.7733 256.093 19.7733 256.093 19.7733 255.729C18.6947 253.543 17.6162 251.357 16.5377 249.171C13.302 242.25 10.7853 234.964 8.26872 227.314C6.47113 221.85 5.03313 216.386 3.95458 210.921C3.23555 206.914 2.51649 202.907 1.79746 198.9C0.718911 190.521 -0.00012207 181.778 -0.00012207 173.036C-0.00012207 170.85 -0.00012207 169.028 -0.00012207 166.843C-0.00012207 163.928 0.359417 160.65 0.359417 157.736C0.718933 154.821 1.07838 151.907 1.07838 148.993C1.07838 148.628 1.07838 148.628 1.07838 148.264C1.79742 144.257 2.15696 140.25 3.23551 136.243C4.31406 130.414 5.75217 124.95 7.54975 119.485C9.70685 111.835 12.5829 104.185 15.8186 97.264C19.0542 90.3426 22.6494 83.4211 26.6041 76.8639C38.8277 70.3068 46.737 66.664 46.737 66.664C46.737 66.664 257.773 24.4068 261.009 20.7639C264.245 17.121 280.063 19.3067 280.063 19.3067C290.13 25.8639 299.118 33.5139 307.746 41.8924C309.903 43.7139 311.701 45.8996 313.498 47.7211C314.577 49.1782 316.015 50.6354 317.094 52.0925C319.251 54.6425 321.048 56.8283 323.205 59.3783C330.396 68.8497 336.867 78.6854 342.26 89.2497C344.417 93.2568 346.214 97.6282 348.012 101.635C364.19 166.114 344.057 221.121 344.057 221.121C349.45 220.028 353.764 219.664 357 219.3Z" fill="url(#paint1_radial_15_22)"/>
<path fill-rule="evenodd" clip-rule="evenodd" d="M351.967 173.4C351.967 179.957 351.608 186.515 350.889 192.707C349.81 202.543 348.012 212.015 345.496 221.122C345.496 221.486 345.496 221.486 345.496 221.85C342.26 233.508 337.586 244.436 332.194 254.636C323.206 271.393 311.701 286.693 298.04 299.808C282.221 314.743 263.167 326.765 242.315 334.779C223.62 342.065 203.127 346.072 181.916 346.072C179.04 346.072 175.804 346.072 172.928 345.708C168.614 345.343 163.94 344.979 159.626 344.615C130.864 340.972 104.62 329.679 82.3296 313.286C79.094 310.736 75.8583 308.186 72.6226 305.636C71.9036 304.908 70.8251 304.179 70.1061 303.451C62.1967 296.165 54.6468 288.515 48.1755 279.772C42.7828 272.85 37.7495 265.2 33.0758 257.186C31.9972 255.365 30.9187 253.543 30.1997 251.358C30.1997 251.358 30.1997 251.358 30.1997 250.993C29.1212 248.808 28.0427 246.986 27.3236 244.8C24.4475 238.243 21.9308 231.322 19.7737 224.4C18.3357 219.3 16.8976 214.2 15.819 209.1C15.1 205.457 14.381 201.815 14.0215 197.808C12.9429 189.793 12.2239 181.779 12.2239 173.4C12.2239 171.579 12.2239 169.393 12.2239 167.572C12.2239 164.657 12.5834 161.743 12.5834 159.193C12.9429 156.279 12.9429 153.729 13.3024 150.814C13.3024 150.45 13.3024 150.45 13.3024 150.086C13.6619 146.443 14.3809 142.436 15.1 138.793C16.1785 133.329 17.6166 128.229 19.0547 122.765C21.2118 115.479 23.7284 108.557 26.9641 101.636C30.1997 94.3501 34.1543 87.0644 38.4685 80.143C41.3447 75.4073 44.5804 70.6716 48.1755 66.3001C52.8493 60.1073 58.242 54.2786 63.6347 48.8143C94.1936 18.5786 136.257 0 182.275 0C184.073 0 185.87 0 187.668 0C189.466 0 191.623 2.22364e-05 193.42 0.364309C198.813 0.728595 203.846 1.45717 209.239 2.18574C209.239 2.18574 209.239 2.18574 209.598 2.18574C213.913 2.91431 218.227 3.64287 222.182 4.73573C227.574 6.19288 232.967 7.65003 238 9.47147C241.595 10.5643 244.831 12.0215 248.426 13.4786C250.943 14.5715 253.46 15.6643 255.976 16.7572C256.336 17.1215 256.695 17.1215 257.414 17.4858C273.952 25.5001 289.052 36.4287 301.994 49.543C303.792 51.3644 305.59 53.1858 307.387 55.0073C308.466 56.4644 309.904 57.5573 310.982 59.0144C312.78 61.2001 314.937 63.7501 316.735 65.9358C323.565 74.6787 329.318 84.1502 334.351 93.9859C340.103 105.643 344.777 118.029 348.012 130.779C350.17 138.793 351.248 147.172 352.327 155.915C351.608 162.107 351.967 167.572 351.967 173.4Z" fill="url(#paint2_radial_15_22)"/>
<path fill-rule="evenodd" clip-rule="evenodd" d="M98.5065 104.55C98.5065 104.55 93.8327 114.75 97.7874 124.95C101.383 135.15 112.168 128.593 124.751 124.95C137.334 121.307 150.277 108.193 158.546 99.8141C166.815 91.4355 174.724 80.1426 174.005 69.214C173.286 58.2854 161.781 50.9997 161.781 50.9997C161.781 50.9997 166.096 45.5354 162.5 67.3926C158.905 88.8855 154.232 96.8998 149.558 100.178C144.884 103.457 131.222 111.836 123.673 116.571C116.123 121.307 107.494 126.043 102.461 124.95C97.0684 123.128 94.5518 111.836 98.5065 104.55Z" fill="url(#paint3_radial_15_22)"/>
<path fill-rule="evenodd" clip-rule="evenodd" d="M121.518 96.8999C121.518 96.8999 115.046 102.728 116.844 107.464C118.641 112.2 130.865 109.286 138.774 99.0857C146.684 88.8856 140.572 80.8713 140.572 80.8713C140.572 80.8713 137.696 97.6285 130.146 100.543C122.596 103.457 120.08 102.364 120.08 102.364C120.08 102.364 118.282 100.907 121.518 96.8999Z" fill="url(#paint4_radial_15_22)"/>
<path fill-rule="evenodd" clip-rule="evenodd" d="M102.104 104.186C102.104 104.186 108.216 96.8999 115.406 90.3427C122.596 83.4213 134.82 80.8712 134.82 80.8712C134.82 80.8712 127.629 76.8641 118.282 82.3284C109.294 88.1569 102.104 104.186 102.104 104.186Z" fill="url(#paint5_radial_15_22)"/>
<path fill-rule="evenodd" clip-rule="evenodd" d="M76.2175 104.549C76.2175 104.549 90.9577 88.1564 108.574 81.235C126.19 74.3135 132.302 72.1278 140.212 65.5706C148.121 59.0135 156.749 53.9135 156.749 53.9135C156.749 53.9135 139.493 54.6421 113.248 71.7635C87.0031 88.1564 76.2175 99.085 76.2175 104.549Z" fill="url(#paint6_radial_15_22)"/>
<path fill-rule="evenodd" clip-rule="evenodd" d="M40.6266 101.271C40.6266 101.271 65.7928 75.7709 85.5662 65.5709C105.34 55.3709 118.642 49.1781 136.258 44.4423C153.874 40.0709 181.198 32.0566 181.198 32.0566L186.231 29.5066C186.231 29.5066 129.787 30.5995 93.116 53.1852C56.4453 75.7709 40.6266 101.271 40.6266 101.271Z" fill="url(#paint7_radial_15_22)"/>
<path fill-rule="evenodd" clip-rule="evenodd" d="M71.1843 130.779C71.1843 130.779 75.4985 166.115 81.6103 167.572C87.7221 169.029 109.293 169.029 141.65 152.272C174.006 135.515 180.477 139.522 198.453 120.943C216.429 102.365 223.979 81.236 229.372 67.3931C235.124 53.5502 236.562 37.5216 234.764 32.7859C234.764 32.7859 240.876 36.4288 240.876 50.2717C240.876 64.1146 236.922 87.4289 231.169 100.543C225.417 114.022 210.317 135.15 192.341 145.35C174.366 155.55 138.055 175.586 102.822 175.222C67.2297 174.858 72.9819 172.308 69.3868 165.022C65.4321 157.736 71.1843 130.779 71.1843 130.779Z" fill="url(#paint8_radial_15_22)"/>
<path opacity="0.5" fill-rule="evenodd" clip-rule="evenodd" d="M15.8214 160.65C15.8214 160.65 22.2928 174.857 25.5284 187.972C29.1236 201.086 28.4045 222.943 43.1447 226.586C57.8849 229.865 78.3773 239.7 85.9272 237.15C93.8365 234.6 122.598 229.5 138.776 232.779C154.954 236.058 184.075 234.236 194.142 229.136C204.208 224.036 226.498 210.558 236.924 206.55C247.35 202.543 261.731 190.886 274.314 178.136C286.897 165.386 286.537 150.815 289.773 143.529C293.009 136.243 299.121 107.464 298.402 94.3502C297.682 81.2359 289.773 56.8287 289.773 56.8287L282.583 49.1787C282.583 49.1787 291.571 82.6931 287.616 106.736C283.661 130.415 287.256 140.25 271.078 162.836C254.9 185.786 231.891 203.636 206.365 212.015C180.84 220.758 164.302 219.665 138.057 222.215C113.25 224.4 82.332 222.943 70.1084 219.665C58.9634 216.75 44.2232 209.465 33.0782 191.25C21.2141 172.307 15.8214 160.65 15.8214 160.65Z" fill="#7D72B3"/>
<path opacity="0.4" fill-rule="evenodd" clip-rule="evenodd" d="M72.2632 123.492C72.2632 123.492 74.7798 161.742 79.4535 165.021C84.1272 168.299 94.5532 169.757 103.901 166.478C113.608 163.199 145.964 152.271 151.716 148.992C157.469 145.714 191.623 128.228 198.453 122.764C205.284 117.664 214.272 99.0851 217.508 95.4422C220.744 91.7994 229.012 68.8493 231.169 60.1064C233.686 51.3635 235.124 41.1636 235.124 41.1636C235.124 41.1636 235.843 36.4278 231.889 34.6064C227.934 33.1492 227.215 34.6064 227.215 34.6064C227.215 34.6064 226.496 40.435 222.901 56.8278C219.305 73.2207 171.13 129.321 146.683 144.257C122.236 158.828 99.2269 159.557 90.958 158.464C82.3296 157.371 71.9037 130.049 72.2632 123.492Z" fill="#7D72B3"/>
<path opacity="0.4" fill-rule="evenodd" clip-rule="evenodd" d="M71.1859 130.778C71.1859 130.778 72.2645 107.1 78.3763 99.0854C84.4881 91.0711 104.981 74.6783 116.845 68.4854C129.068 62.2925 146.325 53.5497 152.437 52.0925C158.549 50.6354 162.863 52.0925 162.863 52.0925C162.863 52.0925 155.672 48.0853 138.775 52.4567C121.878 56.8282 102.823 72.4926 93.476 77.5926C84.1286 82.3283 70.1074 94.3497 66.5123 100.543C63.2766 106.007 71.1859 130.778 71.1859 130.778Z" fill="#7D72B3"/>
<path opacity="0.4" fill-rule="evenodd" clip-rule="evenodd" d="M29.4812 105.642L81.6111 59.3782L113.968 44.4424C113.968 44.4424 145.965 33.5138 160.705 29.871C175.445 26.2281 208.161 25.4995 208.161 25.4995L225.418 27.3209C225.418 27.3209 195.578 10.928 150.998 22.9495C106.777 34.9709 77.297 50.271 64.3544 62.6567C51.7713 74.6782 31.9978 99.4496 29.4812 105.642Z" fill="#7D72B3"/>
<path fill-rule="evenodd" clip-rule="evenodd" d="M28.0452 107.464C28.0452 107.464 0.00295734 141.707 13.6646 162.835C27.3262 183.964 33.438 214.564 37.3927 221.485C41.3474 228.407 86.6464 239.335 95.9939 237.15C105.341 234.964 127.991 229.135 142.731 234.6C142.731 234.6 168.976 232.414 176.166 232.414C183.716 232.414 197.378 225.857 200.613 224.4C203.849 222.942 221.465 217.114 230.453 213.471C239.441 209.828 254.181 198.171 259.933 193.8C265.686 189.064 281.145 170.485 284.381 164.657C287.257 158.828 296.245 125.314 298.402 109.285C300.559 93.2564 294.088 62.6565 288.695 52.0922C283.302 41.5279 267.483 31.6921 267.483 31.6921L268.562 26.9563L281.145 19.3063C281.145 19.3063 303.075 48.085 304.873 73.2207C305.952 87.7922 309.547 119.121 305.592 132.599C302.716 143.528 292.29 174.857 282.942 186.149C273.955 197.442 246.631 226.221 232.251 232.05C217.87 237.514 174.728 245.164 149.562 245.528C130.867 245.892 89.8821 242.614 69.7492 241.885C49.6163 241.157 35.2356 228.407 27.3263 221.849C19.4169 215.292 21.9335 197.807 14.0241 183.599C5.75524 169.757 1.44105 151.178 3.23863 140.978C5.03621 131.507 28.0452 107.464 28.0452 107.464Z" fill="url(#paint9_radial_15_22)"/>
<path fill-rule="evenodd" clip-rule="evenodd" d="M77.2986 238.242C72.9844 237.15 69.0298 234.964 64.7156 233.871C62.1989 233.143 60.0418 232.778 57.5252 232.05C55.0086 231.321 52.492 230.957 49.9754 230.957C44.9421 230.592 39.9088 229.5 36.6732 225.492C33.7971 221.85 31.9996 217.842 30.921 213.107C29.1234 206.914 27.6853 200.721 25.8877 194.892C24.0901 189.064 21.933 184.328 18.6974 179.228C17.6188 177.407 16.5403 175.221 15.1022 173.4C14.0236 171.578 12.2262 170.121 11.1476 167.935C8.63099 162.835 7.91187 157.371 7.91187 151.542C7.91187 148.628 8.63099 145.714 9.35002 142.8C10.0691 139.157 11.1476 135.878 12.9452 132.599C14.7428 129.685 16.1808 126.407 17.9784 123.492C21.9331 116.571 25.8878 109.649 30.5615 103.457C36.6733 95.8065 43.5041 88.1566 50.6944 81.2352C54.6491 77.228 59.3228 73.5852 63.9965 69.9423C67.9512 67.028 71.5464 63.7494 75.1415 60.8351C81.6128 55.7351 89.1627 52.4565 96.7125 48.8136C105.7 44.4422 114.688 40.0708 124.036 36.7922C135.181 32.7851 146.326 29.5065 157.83 26.9565C171.132 24.4064 184.794 23.6779 198.096 23.6779C205.287 23.6779 213.196 22.9493 220.386 25.4993C224.341 26.9565 229.015 28.7779 232.25 30.9636C232.969 31.6922 233.329 31.6922 234.048 32.4207C234.407 32.785 234.407 33.5137 234.767 33.878C235.486 35.3351 235.845 37.1565 235.845 38.6137C235.845 40.0708 235.126 41.528 235.126 42.9851C235.126 45.1708 234.407 47.3565 234.407 49.5422C234.407 52.0922 233.688 53.9137 233.329 56.4637C232.61 60.8351 231.891 65.2065 230.093 69.578C227.577 75.7708 225.779 82.328 223.262 88.1566C222.543 89.978 221.105 91.4352 220.027 93.2566C219.308 95.078 218.589 96.1708 217.51 97.9923C215.713 100.907 214.274 104.185 212.117 106.735C207.803 112.564 203.849 118.757 198.096 123.492C191.265 128.957 184.075 133.692 176.525 137.7C171.492 140.25 166.459 142.435 161.426 144.985C157.111 147.171 152.438 149.721 147.764 151.907C136.259 157.371 123.676 161.378 111.453 165.385C107.858 166.478 104.622 167.571 101.027 168.3C97.7911 168.664 93.8363 169.757 90.6007 169.757C87.0055 169.757 83.4104 168.664 79.8152 167.571C74.0629 165.75 73.3439 159.192 72.9844 153.728C72.6249 149.721 72.2654 145.714 71.5464 142.071C70.8273 138.792 70.8273 135.878 70.1083 132.599C69.3893 129.321 69.0297 126.042 69.0297 122.764C69.0297 118.392 70.4678 114.75 71.5464 110.378C72.2654 107.828 72.2654 104.914 73.7035 102.364C75.1415 98.7209 78.0177 95.4423 81.2533 92.8923C84.1295 90.3423 87.3651 87.428 90.2413 84.878C92.0388 83.0566 94.1959 81.9637 95.9934 80.5066C99.2291 77.9566 102.824 75.7709 106.779 73.9495C109.655 72.4923 111.812 69.9423 114.688 68.1209C117.564 66.2994 120.8 64.478 123.676 62.6566C126.193 61.1994 129.069 60.4709 131.945 59.378C134.102 58.6494 136.259 57.1922 138.416 56.4637C140.574 55.7351 142.731 55.3708 144.888 54.6422C147.045 53.9137 148.842 53.1851 151 52.4565C153.516 51.7279 156.033 50.9994 158.19 50.9994C162.864 50.9994 165.021 53.1851 166.459 57.9208C168.256 64.1136 166.099 69.578 163.942 75.4066C162.145 80.1423 159.987 84.5137 158.549 89.2494C156.392 95.4423 150.64 98.7209 145.966 103.092C140.933 107.464 134.821 111.835 129.069 114.385C127.271 115.114 125.114 115.842 123.317 116.571C121.879 117.299 120.081 118.392 118.643 119.121C117.564 119.85 116.845 120.578 115.767 121.307C115.048 122.035 113.969 122.035 112.891 122.764C110.734 124.221 108.577 125.678 106.06 126.771C103.903 127.864 99.2291 128.592 97.791 125.678C97.072 124.221 97.072 122.4 96.7125 120.942C96.353 119.121 96.353 117.299 96.353 115.478C96.353 113.657 96.7125 112.2 97.0721 110.378C97.4316 108.557 98.1506 107.099 98.8696 105.278C100.667 100.178 103.903 96.5351 106.779 92.528C108.577 89.978 110.374 87.428 112.531 84.878C115.767 81.2352 120.441 79.778 124.755 78.3208C128.709 77.228 134.821 76.1351 138.776 78.3208C142.012 80.5065 139.855 84.878 138.776 87.428C138.057 88.8851 137.697 90.3423 136.978 91.7995C136.619 92.8923 136.619 94.3495 135.9 95.4423C134.462 97.628 131.945 99.0852 129.788 100.907C129.069 101.635 127.631 102.728 126.552 103.092C125.114 103.457 123.676 103.457 122.238 103.821C121.519 103.821 121.16 104.914 120.441 104.549C119.722 104.185 119.722 103.457 119.722 102.728C119.722 101.999 120.081 101.271 120.441 100.542C120.441 100.542 120.441 100.178 120.441 99.8137C121.16 97.628 123.676 95.078 124.755 93.2566C126.552 93.9852 125.474 95.078 125.114 96.1708C124.755 96.8994 124.755 97.628 124.755 98.3566C124.755 99.0851 123.676 100.178 124.395 100.907C124.755 101.271 126.552 100.542 126.912 100.542C131.226 99.0852 133.743 94.3495 135.181 90.3423C135.9 87.428 135.9 83.0565 133.024 81.5994C130.867 80.8708 127.99 81.2352 125.833 81.2352C117.564 81.2352 112.531 90.3422 107.858 96.1708C104.981 100.178 102.465 104.549 100.667 109.285C99.5887 112.564 98.8696 115.842 98.1506 119.121C97.4315 121.671 96.7125 125.314 100.308 124.95C102.465 124.585 104.622 123.492 106.779 122.764C108.577 122.035 110.015 121.671 111.812 120.578C114.329 119.121 117.564 118.757 120.081 117.299C122.238 116.207 124.395 115.114 126.552 114.021C131.945 111.107 137.697 105.642 141.293 100.907C143.809 97.628 147.764 95.0781 150.64 92.1638C153.876 89.2495 155.314 85.2422 157.471 81.5994C159.628 77.5922 160.706 73.9494 161.785 69.9423C162.504 66.2994 165.021 61.9279 163.583 57.9208C162.504 53.9136 157.111 53.9136 153.876 54.2779C150.999 54.6422 148.123 55.3708 145.247 56.0993C140.214 57.9208 135.54 60.1065 130.867 62.2923C123.317 65.5708 116.845 70.6708 110.015 75.0423C106.42 77.228 102.465 79.0494 99.2292 81.5994C96.7126 83.4208 94.5555 85.9709 92.0388 87.7923C90.2413 89.2494 89.1626 91.0709 87.0055 92.1638C84.4889 93.9852 82.3318 95.8065 80.5343 97.9923C79.0962 99.8137 77.2986 102.364 76.5796 104.549C75.8605 106.371 76.5796 108.192 76.5796 110.014C76.5796 112.564 75.8606 115.114 75.8606 117.664C75.8606 120.214 75.8606 123.128 75.8606 125.678C75.8606 131.142 75.1415 136.242 75.1415 141.342C75.1415 144.621 75.8605 148.264 76.5796 151.178C76.9391 153.728 78.0176 155.914 78.3771 158.464C78.3771 160.285 78.7367 162.471 80.1747 163.564C80.8938 163.928 81.9724 164.292 82.6914 164.657C83.4104 165.021 84.1295 165.385 84.8485 165.385C85.208 165.385 85.5675 165.75 86.2866 165.75C86.6461 165.75 87.0055 166.478 87.0055 166.478C87.7246 166.842 89.1627 166.478 89.8817 166.478C92.0388 166.114 94.1959 165.75 95.9934 165.021C101.386 164.292 106.419 164.292 111.453 162.471C117.205 160.285 122.598 157.007 127.991 154.821C136.259 151.178 145.607 148.628 153.516 144.257C157.111 142.435 161.066 140.25 164.661 138.792C173.649 134.785 182.997 131.507 190.546 125.314C193.423 123.128 195.939 120.214 198.456 117.664C199.894 116.207 201.332 114.749 202.77 112.928C206.725 107.828 210.32 102.364 213.196 96.8994C214.634 94.7137 215.353 91.7994 216.432 89.6137C218.589 85.9709 220.746 82.6923 222.903 79.0494C224.7 75.4066 225.779 71.7637 226.858 67.7566C227.577 65.2066 228.296 63.3851 227.936 60.8351C227.936 55.7351 228.296 51.3637 230.453 46.628C231.531 44.078 233.329 40.4351 232.25 37.5208C231.891 36.0637 229.734 35.6994 228.655 35.3351C225.779 34.2422 222.903 33.5136 220.027 32.4207C217.51 31.3279 215.712 29.8708 212.836 29.5065C211.758 29.1422 210.679 29.1422 209.601 29.1422C206.725 29.1422 204.568 31.3279 201.691 30.9636C200.972 30.9636 200.253 30.5993 199.175 30.5993C197.737 30.235 196.299 30.5993 194.861 30.5993C191.625 30.5993 188.749 29.8708 185.513 29.8708C181.918 29.8708 178.323 30.235 174.728 30.5993C171.132 30.9636 167.897 30.5993 164.302 30.5993C162.145 30.5993 160.706 31.6922 158.909 32.4207C157.111 33.1493 155.314 33.5136 153.516 34.2422C151.719 34.9707 150.28 35.3351 148.483 35.6994C145.966 35.6994 143.809 35.335 141.293 36.0636C138.416 36.7922 135.54 37.8851 132.664 38.978C125.114 42.2565 117.564 46.6279 109.655 49.1779C105.7 50.2708 101.746 50.9993 98.1506 52.4565C96.7125 53.1851 95.6339 53.9137 94.1959 55.0065C91.6792 56.828 89.1627 58.2851 86.6461 59.7422C80.8938 63.3851 75.501 67.3923 69.7488 71.7637C63.2775 76.4994 57.1657 81.5994 51.7729 87.7923C42.4255 98.7209 32.7185 109.649 24.4497 121.671C20.495 127.135 16.1808 133.328 13.6642 139.521V139.885C12.2261 143.528 11.5071 147.171 11.8666 151.178C11.8666 151.178 11.8666 151.178 11.8666 151.542C12.2261 154.821 13.6642 158.464 14.7428 161.378C16.1808 164.292 16.8998 167.207 18.6974 170.121C20.4949 173.035 23.0116 175.585 24.0901 178.864C25.5282 182.871 26.9663 187.242 28.4044 191.614C29.8424 196.714 31.2805 202.178 31.9995 207.642C32.7186 210.921 33.078 214.564 34.8756 217.478C37.0327 221.85 41.7064 223.307 45.6611 225.857C47.8182 227.314 48.8968 227.678 51.4134 227.678C54.649 228.042 58.2443 228.771 61.4799 229.864C68.3107 232.05 75.5011 233.507 82.6914 233.507C87.0056 233.507 91.3198 232.414 95.2745 231.685C99.2292 231.321 103.184 230.957 107.138 230.228C110.734 229.5 114.329 228.771 117.924 228.771C121.519 228.771 125.474 229.5 128.709 230.228C134.821 232.05 140.574 233.142 146.685 233.142C150.64 233.142 154.235 232.05 158.19 232.05C161.785 231.685 165.021 232.414 168.616 232.778C174.728 233.142 180.839 231.685 186.592 229.5C190.546 228.042 193.782 226.221 197.377 224.035C200.253 222.214 203.129 221.85 206.006 221.121C212.117 219.3 218.229 217.114 223.981 213.835C231.172 209.464 237.284 203.271 244.474 198.9C248.429 196.35 253.102 194.528 257.057 191.978C260.293 189.792 263.528 187.242 266.045 184.328C269.281 181.05 272.157 177.771 275.392 174.492C277.909 171.942 278.987 168.664 280.066 165.75C282.223 161.014 282.942 156.278 283.661 151.178C284.38 146.078 286.537 141.707 288.694 137.335C291.57 131.507 293.728 126.042 294.087 119.485C294.447 114.385 295.166 109.649 295.166 104.549C295.166 101.271 294.806 98.3566 294.087 95.078C293.728 92.1637 293.009 89.2495 292.649 86.3352C291.93 82.6923 291.93 79.0494 291.211 75.4066C290.492 72.4923 289.773 69.2137 289.054 65.9351C288.335 63.7494 287.616 61.5637 286.897 59.378C285.459 55.7351 283.302 52.0922 280.785 48.8136C279.707 47.3565 278.268 46.9923 277.19 46.2637C276.111 45.5351 276.111 44.8065 275.033 44.4423C273.595 43.7137 272.157 42.9851 270.719 42.2565C268.202 40.7994 265.685 40.4351 263.169 38.978C261.012 37.8851 258.855 36.0636 256.697 34.6065C254.181 33.1493 251.664 32.0565 249.507 29.8708C247.35 27.6851 245.912 25.1351 244.114 23.3136C241.957 21.1279 239.081 19.6708 236.924 17.8493C232.969 14.5708 227.936 14.2065 223.622 12.3851C221.465 11.2922 218.948 11.2922 216.791 10.5636C213.915 9.83505 212.117 8.37792 209.241 8.01363C206.725 7.64935 204.208 7.64934 201.332 6.92076C199.894 6.55648 198.456 6.1922 196.658 6.1922C193.782 5.82792 190.546 6.19217 187.67 6.55646C185.154 6.92074 182.277 6.55646 179.761 6.55646C177.604 6.55646 175.087 6.92074 172.93 6.55646C166.459 5.4636 159.628 5.82792 153.157 6.1922C147.045 6.55649 140.933 6.92073 135.181 9.10645C130.148 10.9279 125.474 12.3851 120.441 14.2065C117.205 15.6636 114.329 17.485 111.093 19.3065C103.543 23.6779 96.7125 28.7779 89.8817 33.5137C81.9724 38.978 74.4225 44.8065 66.8727 50.6351C61.8394 54.2779 56.8062 58.2851 52.1325 61.9279C49.9754 63.7494 47.8182 65.5708 46.0206 67.3922C50.6944 61.1994 56.0872 55.3708 61.4799 49.9065C92.0388 19.6708 134.102 1.09216 180.12 1.09216C181.918 1.09216 183.716 1.09216 185.513 1.09216C187.311 1.09216 189.468 1.09219 191.265 1.45647C196.658 1.82076 201.691 2.54933 207.084 3.2779C207.084 3.2779 207.084 3.2779 207.444 3.2779C213.196 4.73505 218.948 6.55646 225.06 8.37789C230.093 9.83503 234.767 11.2922 239.441 12.7493C242.676 13.8422 245.552 15.2993 248.788 16.3922C251.664 17.485 254.54 18.5779 257.057 20.035C261.371 22.585 265.326 25.4994 268.921 28.4137C271.438 30.2351 273.954 32.7851 276.111 34.9708C279.347 38.2494 282.223 41.8922 284.74 45.5351C290.492 54.6422 295.166 64.8423 297.323 75.7709C299.12 84.878 299.12 94.3494 298.761 103.457C298.401 108.192 297.682 113.657 296.604 118.392C295.525 123.857 293.728 128.592 293.009 134.057C292.649 136.607 293.009 139.521 292.649 142.071C292.29 144.257 291.571 146.442 291.211 148.628C290.492 153 289.054 157.735 286.897 161.742C284.021 167.571 280.425 172.307 276.111 177.042C271.438 182.507 266.764 187.971 261.731 193.071C257.057 198.535 251.305 202.907 245.193 206.55C240.519 209.464 235.486 213.107 230.453 214.928C225.42 216.75 220.027 219.664 214.634 220.392C210.679 220.757 207.444 222.214 204.208 224.764C202.41 226.221 200.613 228.042 198.815 229.864C197.018 231.321 195.22 231.685 193.063 232.414C188.389 233.871 183.715 233.507 178.682 233.507C171.492 233.507 164.661 234.235 157.83 234.964C154.235 235.328 150.64 235.692 147.404 235.328C144.169 234.964 140.933 234.235 138.057 233.871C134.462 233.507 131.226 233.507 127.631 232.778C124.755 232.414 122.598 232.414 120.081 232.778C117.924 233.142 115.767 232.778 113.25 232.778C111.093 233.142 108.577 233.507 106.42 233.871C97.7911 236.057 88.0841 240.792 77.2986 238.242Z" fill="#00C4FF"/>
<path fill-rule="evenodd" clip-rule="evenodd" d="M69.0271 317.293C69.0271 317.293 108.933 324.214 126.909 323.85C154.233 323.122 185.87 326.4 210.317 327.129C234.764 327.857 277.547 307.457 285.456 303.814C293.366 300.172 312.06 289.243 328.598 270.664C345.136 252.086 351.607 221.85 351.607 221.85H344.776C344.776 221.85 342.26 234.964 332.193 249.536C326.082 258.279 317.453 265.929 305.589 276.493C288.332 291.429 266.042 303.086 243.393 308.915C213.193 316.565 186.589 314.379 167.894 317.293C141.29 321.3 81.6102 311.829 81.6102 311.829L69.0271 317.293Z" fill="url(#paint10_radial_15_22)"/>
<path fill-rule="evenodd" clip-rule="evenodd" d="M58.603 297.257C58.603 297.257 65.0743 314.014 69.029 317.293C69.029 317.293 77.6574 317.657 81.9716 313.286L69.7481 303.45L58.603 297.257Z" fill="url(#paint11_radial_15_22)"/>
<path fill-rule="evenodd" clip-rule="evenodd" d="M352.326 190.521C352.326 190.521 356.64 209.464 357 219.664C357 219.664 350.169 224.035 345.136 221.85C345.136 221.85 351.247 198.535 352.326 190.521Z" fill="url(#paint12_radial_15_22)"/>
<path fill-rule="evenodd" clip-rule="evenodd" d="M236.924 10.1991C236.924 10.1991 272.516 13.842 280.785 19.6706C280.785 19.6706 275.033 26.2277 268.202 27.3205C268.562 26.9563 239.8 10.9277 236.924 10.1991Z" fill="#EE8CFF"/>
<path fill-rule="evenodd" clip-rule="evenodd" d="M26.9646 77.2279L41.7048 75.0422L47.457 67.3922C47.457 67.0279 37.0311 71.7636 26.9646 77.2279Z" fill="#FF61C7"/>
<path opacity="0.5" fill-rule="evenodd" clip-rule="evenodd" d="M38.8313 286.692C38.8313 286.692 107.859 307.092 161.426 308.185C215.354 309.278 235.487 297.257 258.856 287.785C282.224 278.678 320.333 257.914 331.837 242.25C343.342 226.949 352.33 190.521 352.33 190.521C352.33 190.521 341.185 245.164 331.837 254.635C322.13 264.107 279.707 293.614 272.158 297.257C264.608 300.9 244.475 316.564 207.445 312.193C207.445 312.193 182.638 315.835 173.65 315.107C164.662 314.378 150.641 323.485 125.115 315.107C125.115 315.107 89.5231 313.285 81.9733 311.464C74.0639 310.007 38.8313 286.692 38.8313 286.692Z" fill="#54469B"/>
<path fill-rule="evenodd" clip-rule="evenodd" d="M55.7268 213.107C55.7268 213.107 112.89 223.307 154.234 218.936C195.579 214.564 217.869 204 229.733 196.35C241.597 188.7 264.606 163.564 273.234 151.907C281.863 140.614 286.177 111.836 286.177 111.836C286.177 111.836 287.615 139.521 280.784 151.907C273.594 163.929 249.506 186.879 239.44 193.436C229.373 199.993 200.971 216.021 186.231 218.571C171.491 221.121 147.044 228.771 129.068 225.493C111.811 222.579 68.6694 223.307 55.7268 213.107Z" fill="#B04FE2"/>
<path fill-rule="evenodd" clip-rule="evenodd" d="M134.818 306C134.818 306 194.139 301.993 214.631 297.257C235.124 292.521 262.087 281.593 280.782 274.307C299.477 267.386 313.858 253.543 324.284 245.893C334.71 238.243 348.012 206.186 348.012 206.186C348.012 206.186 339.383 237.878 326.441 248.078C313.498 258.278 280.063 277.221 242.673 294.343C200.61 313.286 168.254 307.821 134.818 306Z" fill="#8B40E0"/>
<path fill-rule="evenodd" clip-rule="evenodd" d="M342.26 230.229C343.338 227.314 344.057 224.4 345.136 221.85C341.9 233.507 337.227 244.436 331.834 254.636C330.396 256.093 328.239 257.55 326.801 259.007C325.363 260.829 323.924 262.286 322.486 264.107C314.577 271.757 305.949 278.679 296.601 284.507C287.254 290.7 277.906 296.529 267.48 301.264C259.571 304.907 251.302 307.822 243.033 310.007C236.202 311.829 229.012 312.557 222.181 312.922C218.586 313.286 215.35 313.65 211.755 314.014C207.441 314.379 202.767 314.379 198.813 315.107C191.263 316.564 183.713 317.657 176.163 318.022C169.692 318.386 163.221 319.479 156.749 319.479C148.48 319.479 140.211 318.022 131.943 318.022C124.033 318.022 115.764 317.657 107.855 316.929C103.181 316.564 98.5076 315.472 93.8339 315.107C89.8792 314.743 85.9244 313.65 81.9698 313.286C78.7341 310.736 75.4985 308.186 72.2629 305.636C71.5438 304.907 70.4652 304.179 69.7462 303.45C74.4199 304.907 78.7341 306.364 83.4078 307.822C89.8791 310.007 97.0695 311.1 103.541 311.829C108.934 312.557 115.764 312.922 121.157 311.464C126.909 310.007 130.864 311.829 135.897 314.014C138.414 315.107 140.571 315.472 143.088 316.2C146.683 317.293 149.199 316.929 152.795 316.564C156.03 316.2 159.266 315.472 162.142 315.107C164.659 314.379 167.535 313.286 170.051 312.922C174.725 312.193 179.758 311.464 184.432 312.557C189.825 313.65 195.218 314.014 200.61 313.286C206.363 312.193 211.396 311.829 217.148 311.829C218.946 311.829 220.743 312.193 222.541 312.193C224.698 312.557 226.496 311.829 228.653 311.829C232.248 311.464 235.843 310.736 239.438 309.643C242.674 308.55 245.909 307.093 249.145 306C255.616 303.45 261.009 301.264 266.761 297.257C271.435 293.979 276.828 291.793 281.501 288.514C286.175 285.6 290.13 281.593 294.804 279.043C299.837 276.129 304.151 272.122 308.825 268.843C311.701 266.657 314.577 264.107 317.453 261.921C319.97 260.1 322.846 258.643 325.363 256.457C329.317 252.814 333.272 249.171 336.148 244.071C338.665 239.7 340.822 234.964 342.26 230.229Z" fill="#00C4FF"/>
<path fill-rule="evenodd" clip-rule="evenodd" d="M159.628 134.421C159.628 134.421 200.613 100.178 217.87 67.0281C218.229 67.0281 170.054 116.935 159.628 134.421Z" fill="#FF77F4"/>
<path fill-rule="evenodd" clip-rule="evenodd" d="M116.485 174.857C116.485 174.857 142.37 174.858 171.131 162.836C199.893 150.815 214.273 125.679 214.273 125.679C214.273 125.679 194.859 144.622 173.648 155.186C152.436 165.75 136.618 168.3 116.485 174.857Z" fill="#F9C6FF"/>
<path fill-rule="evenodd" clip-rule="evenodd" d="M218.948 119.85C218.948 119.85 221.824 112.2 227.217 99.0854C232.61 85.971 236.924 78.6853 236.924 78.6853C236.924 78.6853 235.486 99.0853 218.948 119.85Z" fill="#EA9CF4"/>
<path fill-rule="evenodd" clip-rule="evenodd" d="M107.497 244.436C107.497 244.436 143.448 253.178 190.545 244.436C237.642 235.693 239.439 232.778 252.382 222.214C265.324 212.014 274.672 198.9 279.705 193.8C284.738 188.7 291.21 171.578 291.21 171.578C291.21 171.578 277.908 195.621 258.853 212.014C239.799 228.043 223.98 236.057 191.983 241.157C160.346 245.893 123.675 245.164 107.497 244.436Z" fill="#D374F4"/>
<path fill-rule="evenodd" clip-rule="evenodd" d="M139.133 323.85C139.133 323.85 171.849 326.764 185.151 329.314C198.453 332.228 223.979 331.864 238.719 326.4C253.459 320.936 282.221 305.271 282.221 305.271C282.221 305.271 255.257 320.571 222.9 324.214C190.903 327.493 171.13 322.028 139.133 323.85Z" fill="#D374F4"/>
<path fill-rule="evenodd" clip-rule="evenodd" d="M291.93 300.536C291.93 300.536 312.782 286.329 322.848 277.221C322.848 276.857 312.063 292.157 291.93 300.536Z" fill="#D374F4"/>
<path fill-rule="evenodd" clip-rule="evenodd" d="M134.104 120.579C134.104 120.579 157.832 102.364 165.382 89.6143C172.932 76.5 173.651 69.2142 173.651 69.2142C173.651 69.2142 176.886 81.9642 162.865 97.9928C148.484 114.021 134.104 120.579 134.104 120.579Z" fill="#F2C4F8"/>
<path fill-rule="evenodd" clip-rule="evenodd" d="M22.6533 215.657C22.2938 223.672 26.608 232.779 40.6291 238.243C54.6503 243.707 65.4357 242.25 65.4357 242.25C65.4357 242.25 49.2575 238.972 40.2696 232.779C31.2817 225.857 22.6533 215.657 22.6533 215.657Z" fill="#F5CEFA"/>
<defs>
<radialGradient id="paint0_radial_15_22" cx="0" cy="0" r="1" gradientUnits="userSpaceOnUse" gradientTransform="translate(68.2149 108.868) scale(278.332 282.025)">
<stop offset="0.00558659" stop-color="#FF9AFF"/>
<stop offset="0.0930098" stop-color="#FB94FF"/>
<stop offset="0.2093" stop-color="#F183FF"/>
<stop offset="0.3418" stop-color="#E068FF"/>
<stop offset="0.4864" stop-color="#C841FF"/>
<stop offset="0.639" stop-color="#A910FF"/>
<stop offset="0.6844" stop-color="#9F00FF"/>
<stop offset="0.7432" stop-color="#9900F8"/>
<stop offset="0.8282" stop-color="#8700E5"/>
<stop offset="0.9287" stop-color="#6A00C6"/>
<stop offset="1" stop-color="#5200AB"/>
</radialGradient>
<radialGradient id="paint1_radial_15_22" cx="0" cy="0" r="1" gradientUnits="userSpaceOnUse" gradientTransform="translate(68.2149 108.868) scale(278.332 282.025)">
<stop offset="0.00558659" stop-color="#FF9AFF"/>
<stop offset="0.0930098" stop-color="#FB94FF"/>
<stop offset="0.2093" stop-color="#F183FF"/>
<stop offset="0.3418" stop-color="#E068FF"/>
<stop offset="0.4864" stop-color="#C841FF"/>
<stop offset="0.639" stop-color="#A910FF"/>
<stop offset="0.6844" stop-color="#9F00FF"/>
<stop offset="0.7432" stop-color="#9900F8"/>
<stop offset="0.8282" stop-color="#8700E5"/>
<stop offset="0.9287" stop-color="#6A00C6"/>
<stop offset="1" stop-color="#5200AB"/>
</radialGradient>
<radialGradient id="paint2_radial_15_22" cx="0" cy="0" r="1" gradientUnits="userSpaceOnUse" gradientTransform="translate(76.1082 92.5498) scale(273.598 277.227)">
<stop offset="0.00558659" stop-color="#FF9AFF"/>
<stop offset="0.0930098" stop-color="#FB94FF"/>
<stop offset="0.2093" stop-color="#F183FF"/>
<stop offset="0.3418" stop-color="#E068FF"/>
<stop offset="0.4864" stop-color="#C841FF"/>
<stop offset="0.639" stop-color="#A910FF"/>
<stop offset="0.6844" stop-color="#9F00FF"/>
<stop offset="0.7432" stop-color="#9900F8"/>
<stop offset="0.8282" stop-color="#8700E5"/>
<stop offset="0.9287" stop-color="#6A00C6"/>
<stop offset="1" stop-color="#5200AB"/>
</radialGradient>
<radialGradient id="paint3_radial_15_22" cx="0" cy="0" r="1" gradientUnits="userSpaceOnUse" gradientTransform="translate(112.086 63.2296) scale(61.1775 61.9892)">
<stop offset="0.630208" stop-color="white"/>
<stop offset="1" stop-color="#EF9AFF"/>
</radialGradient>
<radialGradient id="paint4_radial_15_22" cx="0" cy="0" r="1" gradientUnits="userSpaceOnUse" gradientTransform="translate(121.821 85.6384) scale(21.2827 21.565)">
<stop stop-color="white"/>
<stop offset="1" stop-color="#F7ABFF"/>
</radialGradient>
<radialGradient id="paint5_radial_15_22" cx="0" cy="0" r="1" gradientUnits="userSpaceOnUse" gradientTransform="translate(108.733 83.642) scale(22.4267 22.7242)">
<stop stop-color="white"/>
<stop offset="1" stop-color="#F9D0FD"/>
</radialGradient>
<radialGradient id="paint6_radial_15_22" cx="0" cy="0" r="1" gradientUnits="userSpaceOnUse" gradientTransform="translate(92.8689 61.7559) scale(51.8046 52.4918)">
<stop stop-color="white"/>
<stop offset="1" stop-color="#F7C2FC"/>
</radialGradient>
<radialGradient id="paint7_radial_15_22" cx="0" cy="0" r="1" gradientUnits="userSpaceOnUse" gradientTransform="translate(70.7275 41.3535) scale(87.8324 88.9977)">
<stop stop-color="white"/>
<stop offset="1" stop-color="#F5AEFE"/>
</radialGradient>
<radialGradient id="paint8_radial_15_22" cx="0" cy="0" r="1" gradientUnits="userSpaceOnUse" gradientTransform="translate(103.28 55.4507) scale(122.383 124.007)">
<stop offset="0.744792" stop-color="white"/>
<stop offset="0.9998" stop-color="#E886FF"/>
<stop offset="0.9999" stop-color="#ED8CFF"/>
</radialGradient>
<radialGradient id="paint9_radial_15_22" cx="0" cy="0" r="1" gradientUnits="userSpaceOnUse" gradientTransform="translate(65.1215 56.3623) scale(206.761 209.504)">
<stop offset="0.84375" stop-color="#EEADFE"/>
<stop offset="1" stop-color="#B439EE"/>
</radialGradient>
<radialGradient id="paint10_radial_15_22" cx="0" cy="0" r="1" gradientUnits="userSpaceOnUse" gradientTransform="translate(127.096 238.824) scale(162.958 165.12)">
<stop offset="0.572917" stop-color="#EEB9FF"/>
<stop offset="1" stop-color="#7801BD"/>
</radialGradient>
<radialGradient id="paint11_radial_15_22" cx="0" cy="0" r="1" gradientUnits="userSpaceOnUse" gradientTransform="translate(62.9273 302.529) scale(17.5876 17.8209)">
<stop stop-color="#6D00C2"/>
<stop offset="0.3995" stop-color="#6600BC"/>
<stop offset="0.976" stop-color="#5300AC"/>
<stop offset="1" stop-color="#5200AB"/>
</radialGradient>
<radialGradient id="paint12_radial_15_22" cx="0" cy="0" r="1" gradientUnits="userSpaceOnUse" gradientTransform="translate(347.371 198.91) scale(18.3702 18.6139)">
<stop stop-color="#1F0081"/>
<stop offset="0.73" stop-color="#260087"/>
<stop offset="1" stop-color="#2A008B"/>
</radialGradient>
</defs>
</svg>
